HIERARCHY
ROOT root
{
	OFFSET 0.000000 0.000000 0.000000
	CHANNELS 6 Xposition Yposition Zposition Zrotation Yrotation Xrotation
	JOINT lhip
	{
		OFFSET 0.058581 -0.082280 -0.017664
		CHANNELS 3 Zrotation Yrotation Xrotation
		JOINT lknee
		{
			OFFSET 0.043451 -0.386469 0.008037
			CHANNELS 3 Zrotation Yrotation Xrotation
			JOINT lankle
			{
				OFFSET -0.014790 -0.426874 -0.037428
				CHANNELS 3 Zrotation Yrotation Xrotation
				JOINT ltoe
				{
					OFFSET 0.041054 -0.060286 0.122042
					CHANNELS 3 Zrotation Yrotation Xrotation
					End Site
					{
						OFFSET 0.000000 0.000000 0.000000
					}
				}
			}
		}
	}
	JOINT rhip
	{
		OFFSET -0.060310 -0.090513 -0.013543
		CHANNELS 3 Zrotation Yrotation Xrotation
		JOINT rknee
		{
			OFFSET -0.043257 -0.383688 -0.004843
			CHANNELS 3 Zrotation Yrotation Xrotation
			JOINT rankle
			{
				OFFSET 0.019056 -0.420046 -0.034562
				CHANNELS 3 Zrotation Yrotation Xrotation
				JOINT rtoe
				{
					OFFSET -0.034840 -0.062106 0.130323
					CHANNELS 3 Zrotation Yrotation Xrotation
					End Site
					{
						OFFSET 0.000000 0.000000 0.000000
					}
				}
			}
		}
	}
	JOINT lowerback
	{
		OFFSET 0.004439 0.124404 -0.038385
		CHANNELS 3 Zrotation Yrotation Xrotation
		JOINT upperback
		{
			OFFSET 0.004488 0.137956 0.026820
			CHANNELS 3 Zrotation Yrotation Xrotation
			JOINT chest
			{
				OFFSET -0.002265 0.056032 0.002855
				CHANNELS 3 Zrotation Yrotation Xrotation
				JOINT lowerneck
				{
					OFFSET -0.013390 0.211636 -0.033468
					CHANNELS 3 Zrotation Yrotation Xrotation
					JOINT upperneck
					{
						OFFSET 0.010113 0.088937 0.050410
						CHANNELS 3 Zrotation Yrotation Xrotation
						End Site
						{
							OFFSET 0.000000 0.000000 0.000000
						}
					}
				}
				JOINT lclavicle
				{
					OFFSET 0.071702 0.114000 -0.018898
					CHANNELS 3 Zrotation Yrotation Xrotation
					JOINT lshoulder
					{
						OFFSET 0.122921 0.045205 -0.019046
						CHANNELS 3 Zrotation Yrotation Xrotation
						JOINT lelbow
						{
							OFFSET 0.255332 -0.015649 -0.022946
							CHANNELS 3 Zrotation Yrotation Xrotation
							JOINT lwrist
							{
								OFFSET 0.265709 0.012698 -0.007375
								CHANNELS 3 Zrotation Yrotation Xrotation
								End Site
								{
									OFFSET 0.000000 0.000000 0.000000
								}
							}
						}
					}
				}
				JOINT rclavicle
				{
					OFFSET -0.082954 0.112472 -0.023707
					CHANNELS 3 Zrotation Yrotation Xrotation
					JOINT rshoulder
					{
						OFFSET -0.113228 0.046853 -0.008472
						CHANNELS 3 Zrotation Yrotation Xrotation
						JOINT relbow
						{
							OFFSET -0.260127 -0.014369 -0.031269
							CHANNELS 3 Zrotation Yrotation Xrotation
							JOINT rwrist
							{
								OFFSET -0.269108 0.006794 -0.006027
								CHANNELS 3 Zrotation Yrotation Xrotation
								End Site
								{
									OFFSET 0.000000 0.000000 0.000000
								}
							}
						}
					}
				}
			}
		}
	}
}
MOTION
Frames: 7
Frame Time: 0.033333
-0.039692 0.095285 0.927277 -56.372059 -0.151392 80.778818 -2.823183 -3.774878 -12.261153 -14.748773 -6.038773 45.397158 8.267638 5.089740 -28.633036 0.000000 -0.000000 0.000000 -2.075743 2.370160 -17.222840 2.768446 3.213613 48.477448 2.273866 -5.347906 -24.181286 0.000000 -0.000000 0.000000 1.319783 -1.544928 16.303421 4.306520 -10.057329 -3.986265 0.514336 -3.024366 -2.108068 -3.893886 -6.390464 -12.022682 -0.472921 -9.151418 5.603613 4.260752 -45.252579 -19.914487 -29.252068 -57.153232 1.688189 55.756144 -41.511610 -56.817313 15.242821 -5.838738 -28.957948 -4.215656 31.517253 -20.907700 10.284388 34.937327 -6.767662 -101.200021 55.169997 -69.826491 10.938826 1.055399 11.552354 
-0.053192 0.095350 0.914580 -56.414710 -0.009419 79.978654 -2.463437 -3.657706 -12.609271 -15.197914 -5.031116 49.216661 8.871208 6.193001 -30.562032 0.000000 -0.000000 0.000000 -1.366542 2.080181 -17.496004 3.237594 2.933208 52.117526 1.650463 -6.060850 -25.448689 0.000000 -0.000000 0.000000 1.058864 -1.284558 16.343596 4.163198 -9.746649 -3.849735 0.481252 -2.796881 -1.892049 -3.770627 -6.759204 -11.390703 -0.166441 -8.945781 5.507795 5.395874 -45.178560 -21.042975 -25.842274 -58.118227 -0.988634 56.178560 -40.741020 -58.981712 13.489694 -5.713201 -32.052191 -5.623316 31.323619 -21.629341 7.196253 34.583311 -8.665171 -98.684274 55.008797 -67.805887 12.065382 -0.018035 10.701926 
-0.066200 0.095344 0.900988 -56.325836 0.048423 79.442251 -2.047121 -3.482058 -13.268194 -15.866749 -4.135672 53.004889 9.591030 6.906359 -32.369147 0.000000 -0.000000 0.000000 -0.922136 1.875400 -18.132634 3.634201 2.510141 55.855759 0.940364 -6.480178 -27.608381 0.000000 -0.000000 0.000000 1.055377 -0.967307 16.780679 3.846497 -9.367554 -4.683872 0.245106 -2.522709 -2.031768 -3.787930 -8.118295 -9.448733 0.235477 -9.430245 4.441656 6.612882 -45.285312 -22.332768 -24.742300 -58.516572 -1.801920 56.139360 -40.355615 -62.479976 13.846121 -4.084760 -36.790937 -6.713454 30.970133 -22.386184 5.462953 33.427820 -9.528209 -98.068679 55.177550 -67.639136 11.415747 -0.763185 11.939272 
-0.081664 0.095386 0.888715 -55.549936 0.476888 78.713269 -1.349127 -2.647759 -13.750861 -16.137152 -3.728362 57.370353 10.876670 7.281530 -33.102091 0.000000 -0.000000 0.000000 0.155840 0.746874 -17.962475 2.908730 1.789859 59.295161 -0.217853 -6.847757 -29.887436 0.000000 -0.000000 0.000000 1.469528 -1.304197 17.699491 3.208438 -9.321476 -6.954961 -0.092805 -1.912182 -1.251325 -3.769634 -8.581335 -9.050819 0.150718 -10.369809 5.626169 7.074898 -44.040569 -22.322694 -25.417649 -59.870041 -1.961652 56.630405 -42.470552 -63.313562 19.822637 -0.239896 -36.977003 -6.709658 29.920395 -21.959970 5.098153 32.062681 -10.580866 -103.668973 55.397522 -67.655445 -6.450857 12.878533 29.181451 
-0.094261 0.095968 0.875828 -55.033288 0.692564 77.893516 -0.497317 -1.976948 -14.466752 -17.039867 -2.954215 61.760537 10.633706 7.068908 -33.980617 0.000000 -0.000000 0.000000 0.858066 0.465559 -17.950071 3.064320 1.356576 62.670553 -0.355816 -7.677536 -31.296542 0.000000 -0.000000 0.000000 1.021148 -1.159709 17.850227 3.267179 -9.201360 -6.916482 -0.050626 -2.064064 -0.721826 -3.613983 -8.804009 -8.733043 0.373497 -10.262481 4.722873 7.784140 -42.772346 -23.551009 -25.335893 -60.635510 -1.796865 57.195895 -44.029431 -62.780591 21.323876 1.463555 -36.493848 -7.688214 28.613781 -22.913793 4.496779 31.830316 -10.705737 -104.590352 56.004477 -68.278306 -7.745278 12.899488 28.692766 
-0.105486 0.096536 0.864501 -54.774734 0.737207 77.476909 0.434609 -1.649906 -15.660745 -18.296090 -2.241786 65.851322 10.075621 6.209538 -34.495500 0.000000 -0.000000 0.000000 1.361744 0.620007 -18.606808 3.637026 0.942806 66.127265 -0.371044 -8.603763 -31.808025 0.000000 -0.000000 0.000000 0.514284 -0.970558 17.709896 3.366008 -8.999443 -6.934395 -0.107290 -2.237945 -0.434855 -3.834480 -8.934382 -8.908149 0.713677 -10.036198 4.294218 8.572497 -41.705146 -24.267333 -25.270826 -60.961906 -1.758176 57.653312 -45.127063 -62.904282 23.038874 3.253758 -36.698331 -8.262690 27.877323 -23.206990 4.155377 31.530512 -10.815467 -105.523685 56.264389 -68.538123 -9.846097 13.752773 29.979587 
-0.114948 0.097384 0.855240 -54.536295 0.553956 77.129369 1.046684 -1.609131 -16.642082 -20.148134 -1.936174 69.078655 9.452115 6.033003 -34.494131 0.000000 -0.000000 0.000000 1.833913 0.385594 -19.626660 4.477555 1.257851 69.547359 -0.580758 -9.664279 -31.631822 0.000000 -0.000000 0.000000 -0.306092 -0.415418 17.338322 3.480845 -8.974390 -6.627950 -0.090596 -2.007854 -0.377328 -3.880986 -8.885357 -8.355476 1.187298 -10.342883 3.719042 9.085810 -42.212124 -24.622610 -23.469625 -60.530267 -2.466442 57.268387 -45.696802 -63.272396 25.026639 4.541853 -36.195966 -8.132032 27.795063 -23.341733 3.405988 30.108214 -10.728389 -106.704636 56.782570 -69.250336 -10.867626 13.782381 31.071208 
